<?xml version="1.0" standalone="no"?>
<!DOCTYPE svg PUBLIC "-//W3C//DTD SVG 20010904//EN"
 "http://www.w3.org/TR/2001/REC-SVG-20010904/DTD/svg10.dtd">
<svg version="1.0" xmlns="http://www.w3.org/2000/svg"
 width="2048.000000pt" height="2048.000000pt" viewBox="0 0 2048.000000 2048.000000"
 preserveAspectRatio="xMidYMid meet">

<g transform="translate(0.000000,2048.000000) scale(0.100000,-0.100000)"
fill="#ee171f" stroke="none">
<path d="M0 10240 l0 -10240 10240 0 10240 0 0 10240 0 10240 -10240 0 -10240
0 0 -10240z m12110 4985 c2007 -50 3277 -142 3715 -270 581 -169 1054 -610
1229 -1145 115 -355 219 -1205 266 -2185 42 -886 40 -2011 -5 -2890 -49 -938
-147 -1715 -260 -2061 -183 -558 -683 -1011 -1283 -1163 -703 -179 -2843 -291
-5547 -291 -2685 0 -4792 110 -5496 286 -611 152 -1114 599 -1299 1153 -131
390 -233 1181 -290 2241 -34 631 -32 1907 5 2600 57 1087 161 1941 281 2310
184 561 701 1022 1309 1165 413 97 1349 179 2570 225 351 13 1461 40 1820 44
620 7 2419 -5 2985 -19z"/>
<path d="M8800 10240 c0 -1871 2 -2111 15 -2106 8 3 192 106 407 229 1260 719
2629 1499 2980 1698 169 96 307 176 307 179 0 3 -136 82 -302 176 -166 95
-608 346 -982 559 -374 213 -889 507 -1145 653 -256 145 -642 366 -858 489
-215 123 -399 226 -407 229 -13 5 -15 -235 -15 -2106z"/>
</g>
</svg>
